<svg aria-hidden="true" style="position:absolute;width:0;height:0;overflow:hidden" xmlns="http://www.w3.org/2000/svg">
<defs>

<symbol id="icon-call" viewBox="0 0 32 32">
    <path d="m31.159 24.687-6.477-4.32a1.887 1.887 0 0 0-2.527.408l-.003.004-1.888 2.426a.807.807 0 0 1-1.037.215l.004.002-.361-.198c-1.188-.649-2.669-1.455-5.653-4.437-2.98-2.987-3.789-4.467-4.437-5.653l-.198-.361a.808.808 0 0 1 .211-1.036l.002-.001 2.426-1.886a1.893 1.893 0 0 0 .407-2.539l.004.007L7.312.841A1.882 1.882 0 0 0 4.769.276l.008-.005-2.709 1.626A3.833 3.833 0 0 0 .334 4.131l-.007.027C-.65 7.712.084 13.845 9.118 22.88 16.305 30.067 21.656 32 25.331 32h.036c.879 0 1.73-.12 2.537-.344l-.066.016a3.84 3.84 0 0 0 2.252-1.723l.01-.017 1.63-2.709a1.879 1.879 0 0 0-.565-2.53l-.007-.004zm-.347 1.988-1.626 2.709a2.74 2.74 0 0 1-1.626 1.259c-3.281.902-9.011.156-17.685-8.516C1.201 13.453.456 7.723 1.357 4.442a2.759 2.759 0 0 1 1.261-1.63l2.709-1.623a.816.816 0 0 1 1.099.242l.002.003 2.347 3.524 1.969 2.953a.817.817 0 0 1-.177 1.097l-.002.001-2.423 1.886a1.864 1.864 0 0 0-.49 2.405l-.005-.009.192.35c.683 1.25 1.53 2.805 4.623 5.899s4.646 3.94 5.897 4.621l.35.192a1.866 1.866 0 0 0 2.393-.488l.003-.004 1.886-2.426a.819.819 0 0 1 1.101-.175l-.003-.002 6.477 4.32a.813.813 0 0 1 .247 1.099zM18.133 5.335a9.076 9.076 0 0 1 9.067 9.066.533.533 0 1 0 1.066 0c-.005-5.595-4.539-10.129-10.133-10.135h-.001a.533.533 0 1 0 0 1.066z"/>
    <path d="M18.133 8.535A5.874 5.874 0 0 1 24 14.401a.533.533 0 1 0 1.066 0 6.939 6.939 0 0 0-6.933-6.935.533.533 0 1 0 0 1.066z"/>
    <path d="M18.133 11.735a2.67 2.67 0 0 1 2.667 2.667.533.533 0 1 0 1.066 0 3.737 3.737 0 0 0-3.733-3.735.533.533 0 1 0 0 1.066z"/>
</symbol>

<symbol id="icon-envelope" viewBox="0 0 32 32">
    <path d="M28.094 3.823H3.913A3.917 3.917 0 0 0 0 7.738v16.525a3.917 3.917 0 0 0 3.913 3.915h24.175a3.917 3.917 0 0 0 3.913-3.917V7.736a3.913 3.913 0 0 0-3.906-3.913zm2.125 20.439a2.129 2.129 0 0 1-2.125 2.127H3.913a2.127 2.127 0 0 1-2.125-2.127V7.744c0-1.173.954-2.127 2.125-2.127h24.175c1.173 0 2.125.954 2.125 2.127v16.518h.006z"/>
    <path d="m20.181 15.795 7.827-7.019a.897.897 0 0 0 .063-1.266l.001.001a.897.897 0 0 0-1.264-.065l.001-.001-10.795 9.685-2.103-1.877c-.006-.009-.013-.015-.013-.021a1.443 1.443 0 0 0-.144-.126l-.003-.002-8.567-7.663a.889.889 0 0 0-1.265.072l-.001.001a.892.892 0 0 0 .074 1.265l.001.001 7.919 7.078-7.887 7.381A.897.897 0 1 0 5.25 24.55l8.006-7.488 2.172 1.939a.89.89 0 0 0 1.192-.007l-.001.001 2.231-2.001 7.957 7.563a.886.886 0 0 0 1.267-.033.892.892 0 0 0-.033-1.262l-7.859-7.465z"/>
</symbol>

<symbol id="icon-placeholder" viewBox="0 0 32 32">
    <path d="M15.979 0C9.505.007 4.258 5.253 4.25 11.726v.001c0 2.972 1.873 7.168 5.564 12.476a83.81 83.81 0 0 0 5.55 7.107l-.085-.099.7.789.7-.789a82.93 82.93 0 0 0 5.286-6.743l.177-.265c3.691-5.308 5.564-9.504 5.564-12.476C27.697 5.254 22.452.009 15.98 0h-.001zm4.638 23.119a84.697 84.697 0 0 1-4.741 6.16l.103-.125a83.574 83.574 0 0 1-4.451-5.754l-.178-.266c-3.42-4.915-5.227-8.862-5.227-11.407.007-5.44 4.416-9.849 9.855-9.856h.001c5.44.007 9.849 4.416 9.856 9.855v.001c0 2.543-1.805 6.483-5.218 11.392z"/>
    <path d="M15.977 4.335a6.93 6.93 0 0 0-6.923 6.92 6.93 6.93 0 0 0 6.925 6.923 6.93 6.93 0 0 0 6.921-6.922 6.93 6.93 0 0 0-6.92-6.921zm0 11.972a5.056 5.056 0 0 1-5.054-5.052 5.056 5.056 0 0 1 5.056-5.047 5.057 5.057 0 0 1 5.05 5.049 5.057 5.057 0 0 1-5.049 5.05z"/>
</symbol>

<symbol id="icon-project" viewBox="0 0 32 32">
    <path fill="#4985ff" style="fill:var(--color2, #4985ff)" d="M31.466 0h-24a.534.534 0 0 0-.534.534v8h1.066V1.067h22.934v29.344a.525.525 0 0 1-.49.524h-.002c-.046 0-.092-.004-.138-.005-.094-.003-.189-.005-.282-.014-.008 0-.016 0-.024-.003a3.745 3.745 0 0 1-3.308-3.29l-.002-.017c0-.008-.002-.016-.003-.022a3.693 3.693 0 0 1-.019-.379v-1.069a.534.534 0 0 0-.534-.534H7.996v-9.6H6.93v9.6H2.664a.534.534 0 0 0-.534.534v1.066a4.805 4.805 0 0 0 4.8 4.8h23.52a1.588 1.588 0 0 0 1.546-1.587v-.013.001V.537a.534.534 0 0 0-.533-.534zM6.933 30.934a3.738 3.738 0 0 1-3.734-3.733v-.534h22.4v.534c.001.176.011.352.03.526.005.046.014.091.021.137.018.13.038.258.067.384.01.045.022.088.033.133a4.8 4.8 0 0 0 .327.904l-.012-.029c.013.026.024.053.037.077.067.136.141.266.221.394l.03.054c.087.136.181.267.282.394l.017.023c.219.275.459.517.722.731l.009.007-20.449-.002z"/>
    <path fill="#4985ff" style="fill:var(--color2, #4985ff)" d="M17.6 14.934a.529.529 0 0 0 .377-.157l2.134-2.133a.535.535 0 0 0 0-.754l-2.134-2.134A.533.533 0 0 0 17.6 9.6H2.666a2.667 2.667 0 1 0 0 5.334H17.6zm-.138-4.184 1.517 1.517-1.517 1.517-.379-1.517.379-1.517zm-13.196-.084h12.118l-.266 1.067H5.334v1.066h10.784l.266 1.066H4.266v-3.2zm-3.2 1.6a1.6 1.6 0 0 1 1.6-1.6H3.2v3.2h-.534a1.6 1.6 0 0 1-1.6-1.6zm11.2 10.668h16.001a.534.534 0 0 0 .534-.534v-16a.534.534 0 0 0-.911-.377l-16 16a.533.533 0 0 0 .377.911zM27.733 7.687v1.379h-1.066v1.067h1.066v1.066h-1.066v1.066h1.066v1.067h-1.066v1.066h1.066v1.066h-1.066v1.067h1.066v1.066h-1.066v1.066h1.066v1.067h-1.066v1.066h1.066v1.066h-1.066v-1.066H25.6v1.066h-1.066v-1.066h-1.067v1.066h-1.066v-1.066h-1.066v1.066h-1.067v-1.066h-1.066v1.066h-1.066v-1.066h-1.067v1.066h-1.066v-1.066h-1.066v1.066h-1.379L27.736 7.684z"/>
    <path fill="#4985ff" style="fill:var(--color2, #4985ff)" d="M19.992 19.734h5.075a.534.534 0 0 0 .534-.534v-5.074a.533.533 0 0 0-.911-.377l-5.075 5.075a.533.533 0 0 0 .377.911zm4.542-4.32v3.253h-3.253l3.253-3.253zm0-12.214H13.868v1.066h10.666V3.2zm1.6 2.134H12.268V6.4h13.866V5.334zM12.267 16.533h-3.2V17.6h3.2v-1.067zM11.2 18.667H9.067v1.066h2.134v-1.067z"/>
</symbol>

<symbol id="icon-web-programming" viewBox="0 0 32 32">
    <path d="M12.625 22.425a.527.527 0 0 1-.342-.126l.001.001-3.42-2.911a.526.526 0 0 1-.001-.804l.001-.001 3.419-2.911a.527.527 0 1 1 .685.804l-.001.001-2.946 2.509 2.946 2.509a.527.527 0 0 1-.342.93h-.001zm6.749 0a.527.527 0 0 1-.343-.93l.001-.001 2.946-2.509-2.946-2.509a.527.527 0 1 1 .685-.803l-.001-.001 3.419 2.911a.526.526 0 0 1 .001.804l-.001.001-3.419 2.912a.52.52 0 0 1-.34.125h-.001zm-4.585 2.183h-.001a.527.527 0 0 1-.516-.641l-.001.003 2.13-10.115a.53.53 0 1 1 1.034.223l.001-.004-2.131 10.115a.529.529 0 0 1-.516.42z"/>
    <path d="M28.452 30.119H3.546a3.552 3.552 0 0 1-3.547-3.546V5.435a3.552 3.552 0 0 1 3.546-3.548h24.907a3.553 3.553 0 0 1 3.547 3.547v21.138a3.553 3.553 0 0 1-3.547 3.547zM3.547 2.944a2.494 2.494 0 0 0-2.49 2.49v21.138a2.495 2.495 0 0 0 2.489 2.491h24.907a2.494 2.494 0 0 0 2.49-2.491V5.434a2.495 2.495 0 0 0-2.491-2.491H3.546z"/>
    <path d="M31.472 10.347H.528a.53.53 0 0 1 0-1.058h30.944a.527.527 0 1 1 0 1.056zM9.026 7.819a1.674 1.674 0 0 1-1.671-1.672 1.674 1.674 0 0 1 1.671-1.671c.922.002 1.67.749 1.671 1.671A1.675 1.675 0 0 1 9.026 7.82zm0-2.288a.616.616 0 1 0 .001 1.234h.001a.616.616 0 1 0-.001-1.234h-.001zM3.89 7.802a1.674 1.674 0 0 1-1.671-1.671A1.674 1.674 0 0 1 3.89 4.46a1.675 1.675 0 0 1 1.673 1.671 1.674 1.674 0 0 1-1.672 1.671zm0-2.287a.616.616 0 0 0 .002 1.234h.001a.616.616 0 0 0-.002-1.234H3.89zm10.273 2.319a1.674 1.674 0 0 1-1.671-1.671 1.674 1.674 0 0 1 1.671-1.671c.922.002 1.67.749 1.671 1.671a1.674 1.674 0 0 1-1.671 1.671zm0-2.287a.616.616 0 0 0 .001 1.232h.001a.616.616 0 0 0-.001-1.232h-.001z"/>
</symbol>

</defs>
</svg>